<?xml version='1.0' encoding='UTF-8'?>
<svg viewBox="-4 -4 32 32" xmlns="http://www.w3.org/2000/svg" xmlns:xlink="http://www.w3.org/1999/xlink">
  <g id="Layer_1" transform="translate(-4, -4)">
    <g id="Clock">
      <path d="M16, 4C9.4, 4 4, 9.4 4, 16C4, 22.6 9.4, 28 16, 28C22.6, 28 28, 22.6 28, 16C28, 9.4 22.6, 4 16, 4zM16, 26C10.5, 26 6, 21.5 6, 16C6, 10.5 10.5, 6 16, 6C21.5, 6 26, 10.5 26, 16C26, 21.5 21.5, 26 16, 26z" fill="#FFFFFF" class="White" />
    </g>
  </g>
  <g id="Layer_1" transform="translate(-4, -4)">
    <g id="Clock">
      <polygon points="16,16 16,8 14,8 14,18 24,18 24,16  " fill="#FFFFFF" class="White" />
    </g>
  </g>
</svg>