<?xml version='1.0' encoding='UTF-8'?>
<svg viewBox="-2.0025 -3.1675 32 32" xmlns="http://www.w3.org/2000/svg" xmlns:xlink="http://www.w3.org/1999/xlink">
  <g id="Layer_1" transform="translate(-4.6691, -4.6675)">
    <g transform="matrix(1.1667, 0, 0, 1.1667, 0, 0)">
      <g id="ServerMode">
        <path d="M27, 20L5, 20C4.5, 20 4, 20.5 4, 21L4, 25C4, 25.5 4.5, 26 5, 26L27, 26C27.5, 26 28, 25.5 28, 25L28, 21C28, 20.5 27.5, 20 27, 20zM8, 24L6, 24L6, 22L8, 22L8, 24zM27, 12L5, 12C4.5, 12 4, 12.5 4, 13L4, 17C4, 17.5 4.5, 18 5, 18L27, 18C27.5, 18 28, 17.5 28, 17L28, 13C28, 12.5 27.5, 12 27, 12zM8, 16L6, 16L6, 14L8, 14L8, 16zM27, 4L5, 4C4.5, 4 4, 4.5 4, 5L4, 9C4, 9.5 4.5, 10 5, 10L27, 10C27.5, 10 28, 9.5 28, 9L28, 5C28, 4.5 27.5, 4 27, 4zM8, 8L6, 8L6, 6L8, 6L8, 8z" fill="#FFFFFF" class="White" />
      </g>
    </g>
  </g>
</svg>